<mxfile host="Electron" modified="2023-06-27T04:43:52.883Z" agent="Mozilla/5.0 (Windows NT 10.0; Win64; x64) AppleWebKit/537.36 (KHTML, like Gecko) draw.io/21.2.8 Chrome/112.0.5615.165 Electron/24.2.0 Safari/537.36" etag="8FZ3Zy2xwSsivZlepNkw" version="21.2.8" type="device">
  <diagram name="Page-1" id="XqABW39nhq6Rf8SQesM1">
    <mxGraphModel dx="2267" dy="1120" grid="1" gridSize="10" guides="1" tooltips="1" connect="1" arrows="1" fold="1" page="1" pageScale="1" pageWidth="850" pageHeight="1100" math="0" shadow="0">
      <root>
        <mxCell id="0" />
        <mxCell id="1" parent="0" />
        <mxCell id="UZHBKDGX54Dqc1hUt0gi-4" value="Start" style="strokeWidth=2;html=1;shape=mxgraph.flowchart.start_1;whiteSpace=wrap;" parent="1" vertex="1">
          <mxGeometry x="800" y="20" width="100" height="60" as="geometry" />
        </mxCell>
        <mxCell id="UZHBKDGX54Dqc1hUt0gi-30" value="" style="edgeStyle=orthogonalEdgeStyle;rounded=0;orthogonalLoop=1;jettySize=auto;html=1;" parent="1" source="UZHBKDGX54Dqc1hUt0gi-5" target="UZHBKDGX54Dqc1hUt0gi-7" edge="1">
          <mxGeometry relative="1" as="geometry" />
        </mxCell>
        <mxCell id="UZHBKDGX54Dqc1hUt0gi-31" style="edgeStyle=orthogonalEdgeStyle;rounded=0;orthogonalLoop=1;jettySize=auto;html=1;entryX=0;entryY=0.5;entryDx=0;entryDy=0;" parent="1" source="UZHBKDGX54Dqc1hUt0gi-5" target="UZHBKDGX54Dqc1hUt0gi-8" edge="1">
          <mxGeometry relative="1" as="geometry">
            <mxPoint x="1030" y="200" as="targetPoint" />
          </mxGeometry>
        </mxCell>
        <mxCell id="UZHBKDGX54Dqc1hUt0gi-5" value="has an account" style="strokeWidth=2;html=1;shape=mxgraph.flowchart.decision;whiteSpace=wrap;" parent="1" vertex="1">
          <mxGeometry x="790" y="150" width="120" height="100" as="geometry" />
        </mxCell>
        <mxCell id="UZHBKDGX54Dqc1hUt0gi-7" value="Sign up" style="rounded=0;whiteSpace=wrap;html=1;strokeWidth=2;" parent="1" vertex="1">
          <mxGeometry x="510" y="170" width="120" height="60" as="geometry" />
        </mxCell>
        <mxCell id="UZHBKDGX54Dqc1hUt0gi-41" style="edgeStyle=orthogonalEdgeStyle;rounded=0;orthogonalLoop=1;jettySize=auto;html=1;exitX=0.5;exitY=1;exitDx=0;exitDy=0;entryX=0.5;entryY=0;entryDx=0;entryDy=0;entryPerimeter=0;strokeWidth=2;" parent="1" source="UZHBKDGX54Dqc1hUt0gi-8" target="UZHBKDGX54Dqc1hUt0gi-9" edge="1">
          <mxGeometry relative="1" as="geometry" />
        </mxCell>
        <mxCell id="UZHBKDGX54Dqc1hUt0gi-8" value="Login" style="rounded=0;whiteSpace=wrap;html=1;strokeWidth=2;" parent="1" vertex="1">
          <mxGeometry x="1060" y="170" width="120" height="60" as="geometry" />
        </mxCell>
        <mxCell id="UZHBKDGX54Dqc1hUt0gi-46" style="edgeStyle=orthogonalEdgeStyle;rounded=0;orthogonalLoop=1;jettySize=auto;html=1;entryX=0.5;entryY=0;entryDx=0;entryDy=0;strokeWidth=2;" parent="1" source="UZHBKDGX54Dqc1hUt0gi-9" target="UZHBKDGX54Dqc1hUt0gi-10" edge="1">
          <mxGeometry relative="1" as="geometry" />
        </mxCell>
        <mxCell id="UZHBKDGX54Dqc1hUt0gi-47" style="edgeStyle=orthogonalEdgeStyle;rounded=0;orthogonalLoop=1;jettySize=auto;html=1;exitX=0;exitY=0.5;exitDx=0;exitDy=0;exitPerimeter=0;entryX=0.5;entryY=0;entryDx=0;entryDy=0;strokeWidth=2;" parent="1" source="UZHBKDGX54Dqc1hUt0gi-9" target="UZHBKDGX54Dqc1hUt0gi-11" edge="1">
          <mxGeometry relative="1" as="geometry" />
        </mxCell>
        <mxCell id="UZHBKDGX54Dqc1hUt0gi-9" value="Is Admin" style="strokeWidth=2;html=1;shape=mxgraph.flowchart.decision;whiteSpace=wrap;" parent="1" vertex="1">
          <mxGeometry x="785" y="360" width="130" height="100" as="geometry" />
        </mxCell>
        <mxCell id="UZHBKDGX54Dqc1hUt0gi-108" style="edgeStyle=orthogonalEdgeStyle;rounded=0;orthogonalLoop=1;jettySize=auto;html=1;entryX=1;entryY=0.5;entryDx=0;entryDy=0;entryPerimeter=0;strokeWidth=2;" parent="1" source="UZHBKDGX54Dqc1hUt0gi-10" target="UZHBKDGX54Dqc1hUt0gi-106" edge="1">
          <mxGeometry relative="1" as="geometry" />
        </mxCell>
        <mxCell id="UZHBKDGX54Dqc1hUt0gi-10" value="Admin Home" style="rounded=0;whiteSpace=wrap;html=1;strokeWidth=2;" parent="1" vertex="1">
          <mxGeometry x="1310" y="480" width="120" height="60" as="geometry" />
        </mxCell>
        <mxCell id="UZHBKDGX54Dqc1hUt0gi-84" style="edgeStyle=orthogonalEdgeStyle;rounded=0;orthogonalLoop=1;jettySize=auto;html=1;entryX=0.5;entryY=0;entryDx=0;entryDy=0;strokeWidth=2;" parent="1" source="UZHBKDGX54Dqc1hUt0gi-11" target="UZHBKDGX54Dqc1hUt0gi-21" edge="1">
          <mxGeometry relative="1" as="geometry" />
        </mxCell>
        <mxCell id="UZHBKDGX54Dqc1hUt0gi-107" style="edgeStyle=orthogonalEdgeStyle;rounded=0;orthogonalLoop=1;jettySize=auto;html=1;entryX=0;entryY=0.5;entryDx=0;entryDy=0;entryPerimeter=0;strokeWidth=2;" parent="1" source="UZHBKDGX54Dqc1hUt0gi-11" target="UZHBKDGX54Dqc1hUt0gi-106" edge="1">
          <mxGeometry relative="1" as="geometry">
            <Array as="points">
              <mxPoint x="720" y="490" />
              <mxPoint x="720" y="550" />
            </Array>
          </mxGeometry>
        </mxCell>
        <mxCell id="UZHBKDGX54Dqc1hUt0gi-11" value="User Home" style="rounded=0;whiteSpace=wrap;html=1;strokeWidth=2;" parent="1" vertex="1">
          <mxGeometry x="480" y="480" width="120" height="60" as="geometry" />
        </mxCell>
        <mxCell id="UZHBKDGX54Dqc1hUt0gi-12" value="Cancel Appointment" style="rounded=0;whiteSpace=wrap;html=1;strokeWidth=2;" parent="1" vertex="1">
          <mxGeometry x="1770" y="670" width="120" height="60" as="geometry" />
        </mxCell>
        <mxCell id="UZHBKDGX54Dqc1hUt0gi-13" value="View Appointment" style="rounded=0;whiteSpace=wrap;html=1;strokeWidth=2;" parent="1" vertex="1">
          <mxGeometry x="1640" y="670" width="120" height="60" as="geometry" />
        </mxCell>
        <mxCell id="UZHBKDGX54Dqc1hUt0gi-14" value="Search Doctor" style="rounded=0;whiteSpace=wrap;html=1;strokeWidth=2;" parent="1" vertex="1">
          <mxGeometry x="1510" y="670" width="120" height="60" as="geometry" />
        </mxCell>
        <mxCell id="UZHBKDGX54Dqc1hUt0gi-15" value="View Doctor" style="rounded=0;whiteSpace=wrap;html=1;strokeWidth=2;" parent="1" vertex="1">
          <mxGeometry x="1390" y="670" width="110" height="60" as="geometry" />
        </mxCell>
        <mxCell id="UZHBKDGX54Dqc1hUt0gi-16" value="Delete Doctor" style="rounded=0;whiteSpace=wrap;html=1;strokeWidth=2;" parent="1" vertex="1">
          <mxGeometry x="1260" y="670" width="120" height="60" as="geometry" />
        </mxCell>
        <mxCell id="UZHBKDGX54Dqc1hUt0gi-17" value="Update Doctors" style="rounded=0;whiteSpace=wrap;html=1;strokeWidth=2;" parent="1" vertex="1">
          <mxGeometry x="1130" y="670" width="120" height="60" as="geometry" />
        </mxCell>
        <mxCell id="UZHBKDGX54Dqc1hUt0gi-18" value="Add Doctors" style="rounded=0;whiteSpace=wrap;html=1;strokeWidth=2;" parent="1" vertex="1">
          <mxGeometry x="1000" y="670" width="120" height="60" as="geometry" />
        </mxCell>
        <mxCell id="UZHBKDGX54Dqc1hUt0gi-19" value="Rate Doctor" style="rounded=0;whiteSpace=wrap;html=1;strokeWidth=2;" parent="1" vertex="1">
          <mxGeometry x="480" y="1090" width="120" height="60" as="geometry" />
        </mxCell>
        <mxCell id="UZHBKDGX54Dqc1hUt0gi-101" style="edgeStyle=orthogonalEdgeStyle;rounded=0;orthogonalLoop=1;jettySize=auto;html=1;strokeWidth=2;" parent="1" source="UZHBKDGX54Dqc1hUt0gi-20" target="UZHBKDGX54Dqc1hUt0gi-19" edge="1">
          <mxGeometry relative="1" as="geometry" />
        </mxCell>
        <mxCell id="UZHBKDGX54Dqc1hUt0gi-20" value="Cancel Appointment" style="rounded=0;whiteSpace=wrap;html=1;strokeWidth=2;" parent="1" vertex="1">
          <mxGeometry x="480" y="1000" width="120" height="60" as="geometry" />
        </mxCell>
        <mxCell id="UZHBKDGX54Dqc1hUt0gi-85" style="edgeStyle=orthogonalEdgeStyle;rounded=0;orthogonalLoop=1;jettySize=auto;html=1;entryX=1;entryY=0.5;entryDx=0;entryDy=0;entryPerimeter=0;strokeWidth=2;" parent="1" source="UZHBKDGX54Dqc1hUt0gi-21" target="UZHBKDGX54Dqc1hUt0gi-25" edge="1">
          <mxGeometry relative="1" as="geometry" />
        </mxCell>
        <mxCell id="UZHBKDGX54Dqc1hUt0gi-21" value="Search Doctor" style="rounded=0;whiteSpace=wrap;html=1;strokeWidth=2;" parent="1" vertex="1">
          <mxGeometry x="480" y="640" width="120" height="60" as="geometry" />
        </mxCell>
        <mxCell id="UZHBKDGX54Dqc1hUt0gi-103" style="edgeStyle=orthogonalEdgeStyle;rounded=0;orthogonalLoop=1;jettySize=auto;html=1;entryX=0.5;entryY=0;entryDx=0;entryDy=0;strokeWidth=2;" parent="1" source="UZHBKDGX54Dqc1hUt0gi-22" target="UZHBKDGX54Dqc1hUt0gi-23" edge="1">
          <mxGeometry relative="1" as="geometry" />
        </mxCell>
        <mxCell id="UZHBKDGX54Dqc1hUt0gi-22" value="View Doctor Details" style="rounded=0;whiteSpace=wrap;html=1;strokeWidth=2;" parent="1" vertex="1">
          <mxGeometry x="480" y="730" width="120" height="60" as="geometry" />
        </mxCell>
        <mxCell id="UZHBKDGX54Dqc1hUt0gi-99" style="edgeStyle=orthogonalEdgeStyle;rounded=0;orthogonalLoop=1;jettySize=auto;html=1;exitX=0.5;exitY=1;exitDx=0;exitDy=0;entryX=0.5;entryY=0;entryDx=0;entryDy=0;strokeWidth=2;" parent="1" source="UZHBKDGX54Dqc1hUt0gi-23" target="UZHBKDGX54Dqc1hUt0gi-24" edge="1">
          <mxGeometry relative="1" as="geometry" />
        </mxCell>
        <mxCell id="UZHBKDGX54Dqc1hUt0gi-23" value="Book Appointment" style="rounded=0;whiteSpace=wrap;html=1;strokeWidth=2;" parent="1" vertex="1">
          <mxGeometry x="480" y="820" width="120" height="60" as="geometry" />
        </mxCell>
        <mxCell id="UZHBKDGX54Dqc1hUt0gi-100" style="edgeStyle=orthogonalEdgeStyle;rounded=0;orthogonalLoop=1;jettySize=auto;html=1;entryX=0.5;entryY=0;entryDx=0;entryDy=0;strokeWidth=2;" parent="1" source="UZHBKDGX54Dqc1hUt0gi-24" target="UZHBKDGX54Dqc1hUt0gi-20" edge="1">
          <mxGeometry relative="1" as="geometry" />
        </mxCell>
        <mxCell id="UZHBKDGX54Dqc1hUt0gi-24" value="View Appointment" style="rounded=0;whiteSpace=wrap;html=1;strokeWidth=2;" parent="1" vertex="1">
          <mxGeometry x="480" y="910" width="120" height="60" as="geometry" />
        </mxCell>
        <mxCell id="UZHBKDGX54Dqc1hUt0gi-93" style="edgeStyle=orthogonalEdgeStyle;rounded=0;orthogonalLoop=1;jettySize=auto;html=1;exitX=0.5;exitY=1;exitDx=0;exitDy=0;exitPerimeter=0;entryX=0;entryY=0.5;entryDx=0;entryDy=0;strokeWidth=2;" parent="1" source="UZHBKDGX54Dqc1hUt0gi-25" target="UZHBKDGX54Dqc1hUt0gi-22" edge="1">
          <mxGeometry relative="1" as="geometry" />
        </mxCell>
        <mxCell id="UZHBKDGX54Dqc1hUt0gi-25" value="Is Present" style="strokeWidth=2;html=1;shape=mxgraph.flowchart.decision;whiteSpace=wrap;" parent="1" vertex="1">
          <mxGeometry x="240" y="620" width="120" height="100" as="geometry" />
        </mxCell>
        <mxCell id="UZHBKDGX54Dqc1hUt0gi-26" value="" style="endArrow=classic;html=1;rounded=0;exitX=0.5;exitY=1;exitDx=0;exitDy=0;exitPerimeter=0;entryX=0.5;entryY=0;entryDx=0;entryDy=0;entryPerimeter=0;strokeWidth=2;" parent="1" source="UZHBKDGX54Dqc1hUt0gi-4" target="UZHBKDGX54Dqc1hUt0gi-5" edge="1">
          <mxGeometry width="50" height="50" relative="1" as="geometry">
            <mxPoint x="780" y="240" as="sourcePoint" />
            <mxPoint x="830" y="190" as="targetPoint" />
          </mxGeometry>
        </mxCell>
        <mxCell id="UZHBKDGX54Dqc1hUt0gi-32" value="No" style="text;html=1;strokeColor=none;fillColor=none;align=center;verticalAlign=middle;whiteSpace=wrap;rounded=0;" parent="1" vertex="1">
          <mxGeometry x="690" y="160" width="60" height="30" as="geometry" />
        </mxCell>
        <mxCell id="UZHBKDGX54Dqc1hUt0gi-33" value="Yes" style="text;html=1;strokeColor=none;fillColor=none;align=center;verticalAlign=middle;whiteSpace=wrap;rounded=0;rotation=0;" parent="1" vertex="1">
          <mxGeometry x="945" y="160" width="60" height="30" as="geometry" />
        </mxCell>
        <mxCell id="UZHBKDGX54Dqc1hUt0gi-49" value="No" style="text;html=1;strokeColor=none;fillColor=none;align=center;verticalAlign=middle;whiteSpace=wrap;rounded=0;" parent="1" vertex="1">
          <mxGeometry x="650" y="380" width="60" height="30" as="geometry" />
        </mxCell>
        <mxCell id="UZHBKDGX54Dqc1hUt0gi-50" value="Yes" style="text;html=1;strokeColor=none;fillColor=none;align=center;verticalAlign=middle;whiteSpace=wrap;rounded=0;rotation=0;" parent="1" vertex="1">
          <mxGeometry x="1060" y="380" width="60" height="30" as="geometry" />
        </mxCell>
        <mxCell id="UZHBKDGX54Dqc1hUt0gi-55" value="" style="endArrow=none;html=1;rounded=0;strokeWidth=2;" parent="1" edge="1">
          <mxGeometry width="50" height="50" relative="1" as="geometry">
            <mxPoint x="1060" y="600" as="sourcePoint" />
            <mxPoint x="1830" y="600" as="targetPoint" />
          </mxGeometry>
        </mxCell>
        <mxCell id="UZHBKDGX54Dqc1hUt0gi-57" value="" style="endArrow=classic;html=1;rounded=0;strokeWidth=2;" parent="1" edge="1">
          <mxGeometry width="50" height="50" relative="1" as="geometry">
            <mxPoint x="1058.67" y="600" as="sourcePoint" />
            <mxPoint x="1058.67" y="670" as="targetPoint" />
          </mxGeometry>
        </mxCell>
        <mxCell id="UZHBKDGX54Dqc1hUt0gi-58" value="" style="endArrow=classic;html=1;rounded=0;strokeWidth=2;" parent="1" edge="1">
          <mxGeometry width="50" height="50" relative="1" as="geometry">
            <mxPoint x="1189.3300000000002" y="600" as="sourcePoint" />
            <mxPoint x="1189.3300000000002" y="670" as="targetPoint" />
          </mxGeometry>
        </mxCell>
        <mxCell id="UZHBKDGX54Dqc1hUt0gi-60" value="" style="endArrow=classic;html=1;rounded=0;strokeWidth=2;" parent="1" edge="1">
          <mxGeometry width="50" height="50" relative="1" as="geometry">
            <mxPoint x="1319.3300000000002" y="600" as="sourcePoint" />
            <mxPoint x="1319.3300000000002" y="670" as="targetPoint" />
          </mxGeometry>
        </mxCell>
        <mxCell id="UZHBKDGX54Dqc1hUt0gi-61" value="" style="endArrow=classic;html=1;rounded=0;strokeWidth=2;" parent="1" edge="1">
          <mxGeometry width="50" height="50" relative="1" as="geometry">
            <mxPoint x="1444.3300000000002" y="600" as="sourcePoint" />
            <mxPoint x="1444.3300000000002" y="670" as="targetPoint" />
          </mxGeometry>
        </mxCell>
        <mxCell id="UZHBKDGX54Dqc1hUt0gi-63" value="" style="endArrow=classic;html=1;rounded=0;strokeWidth=2;" parent="1" edge="1">
          <mxGeometry width="50" height="50" relative="1" as="geometry">
            <mxPoint x="1569.33" y="600" as="sourcePoint" />
            <mxPoint x="1569.33" y="670" as="targetPoint" />
          </mxGeometry>
        </mxCell>
        <mxCell id="UZHBKDGX54Dqc1hUt0gi-66" value="" style="endArrow=classic;html=1;rounded=0;strokeWidth=2;" parent="1" edge="1">
          <mxGeometry width="50" height="50" relative="1" as="geometry">
            <mxPoint x="1700" y="600" as="sourcePoint" />
            <mxPoint x="1700" y="670" as="targetPoint" />
          </mxGeometry>
        </mxCell>
        <mxCell id="UZHBKDGX54Dqc1hUt0gi-67" value="" style="endArrow=classic;html=1;rounded=0;strokeWidth=2;" parent="1" edge="1">
          <mxGeometry width="50" height="50" relative="1" as="geometry">
            <mxPoint x="1829.33" y="600" as="sourcePoint" />
            <mxPoint x="1829.33" y="670" as="targetPoint" />
          </mxGeometry>
        </mxCell>
        <mxCell id="UZHBKDGX54Dqc1hUt0gi-73" value="" style="endArrow=none;html=1;rounded=0;strokeWidth=2;" parent="1" edge="1">
          <mxGeometry width="50" height="50" relative="1" as="geometry">
            <mxPoint x="1059.33" y="730" as="sourcePoint" />
            <mxPoint x="1059" y="840" as="targetPoint" />
            <Array as="points">
              <mxPoint x="1059.33" y="770" />
            </Array>
          </mxGeometry>
        </mxCell>
        <mxCell id="UZHBKDGX54Dqc1hUt0gi-74" value="" style="endArrow=none;html=1;rounded=0;strokeWidth=2;" parent="1" edge="1">
          <mxGeometry width="50" height="50" relative="1" as="geometry">
            <mxPoint x="1060" y="840" as="sourcePoint" />
            <mxPoint x="1960" y="840" as="targetPoint" />
          </mxGeometry>
        </mxCell>
        <mxCell id="UZHBKDGX54Dqc1hUt0gi-75" value="" style="endArrow=classic;html=1;rounded=0;strokeWidth=2;" parent="1" edge="1">
          <mxGeometry width="50" height="50" relative="1" as="geometry">
            <mxPoint x="1960" y="510" as="sourcePoint" />
            <mxPoint x="1430" y="510" as="targetPoint" />
          </mxGeometry>
        </mxCell>
        <mxCell id="UZHBKDGX54Dqc1hUt0gi-76" value="" style="endArrow=none;html=1;rounded=0;strokeWidth=2;" parent="1" edge="1">
          <mxGeometry width="50" height="50" relative="1" as="geometry">
            <mxPoint x="1960" y="510" as="sourcePoint" />
            <mxPoint x="1960" y="840" as="targetPoint" />
            <Array as="points">
              <mxPoint x="1960.33" y="760" />
            </Array>
          </mxGeometry>
        </mxCell>
        <mxCell id="UZHBKDGX54Dqc1hUt0gi-78" value="" style="endArrow=classic;html=1;rounded=0;strokeWidth=2;exitX=0.5;exitY=1;exitDx=0;exitDy=0;" parent="1" source="UZHBKDGX54Dqc1hUt0gi-17" edge="1">
          <mxGeometry width="50" height="50" relative="1" as="geometry">
            <mxPoint x="1189.3300000000002" y="740" as="sourcePoint" />
            <mxPoint x="1190" y="840" as="targetPoint" />
          </mxGeometry>
        </mxCell>
        <mxCell id="UZHBKDGX54Dqc1hUt0gi-79" value="" style="endArrow=classic;html=1;rounded=0;strokeWidth=2;exitX=0.5;exitY=1;exitDx=0;exitDy=0;" parent="1" edge="1">
          <mxGeometry width="50" height="50" relative="1" as="geometry">
            <mxPoint x="1319.33" y="730" as="sourcePoint" />
            <mxPoint x="1319.33" y="840" as="targetPoint" />
          </mxGeometry>
        </mxCell>
        <mxCell id="UZHBKDGX54Dqc1hUt0gi-80" value="" style="endArrow=classic;html=1;rounded=0;strokeWidth=2;exitX=0.5;exitY=1;exitDx=0;exitDy=0;" parent="1" edge="1">
          <mxGeometry width="50" height="50" relative="1" as="geometry">
            <mxPoint x="1444.33" y="730" as="sourcePoint" />
            <mxPoint x="1444.33" y="840" as="targetPoint" />
          </mxGeometry>
        </mxCell>
        <mxCell id="UZHBKDGX54Dqc1hUt0gi-81" value="" style="endArrow=classic;html=1;rounded=0;strokeWidth=2;exitX=0.5;exitY=1;exitDx=0;exitDy=0;" parent="1" edge="1">
          <mxGeometry width="50" height="50" relative="1" as="geometry">
            <mxPoint x="1569.33" y="730" as="sourcePoint" />
            <mxPoint x="1569.33" y="840" as="targetPoint" />
          </mxGeometry>
        </mxCell>
        <mxCell id="UZHBKDGX54Dqc1hUt0gi-82" value="" style="endArrow=classic;html=1;rounded=0;strokeWidth=2;exitX=0.5;exitY=1;exitDx=0;exitDy=0;" parent="1" edge="1">
          <mxGeometry width="50" height="50" relative="1" as="geometry">
            <mxPoint x="1699.33" y="730" as="sourcePoint" />
            <mxPoint x="1699.33" y="840" as="targetPoint" />
          </mxGeometry>
        </mxCell>
        <mxCell id="UZHBKDGX54Dqc1hUt0gi-83" value="" style="endArrow=classic;html=1;rounded=0;strokeWidth=2;exitX=0.5;exitY=1;exitDx=0;exitDy=0;" parent="1" edge="1">
          <mxGeometry width="50" height="50" relative="1" as="geometry">
            <mxPoint x="1829.33" y="730" as="sourcePoint" />
            <mxPoint x="1829.33" y="840" as="targetPoint" />
          </mxGeometry>
        </mxCell>
        <mxCell id="UZHBKDGX54Dqc1hUt0gi-91" value="" style="endArrow=none;html=1;rounded=0;strokeWidth=2;" parent="1" edge="1">
          <mxGeometry width="50" height="50" relative="1" as="geometry">
            <mxPoint x="299.33" y="620" as="sourcePoint" />
            <mxPoint x="300" y="510" as="targetPoint" />
          </mxGeometry>
        </mxCell>
        <mxCell id="UZHBKDGX54Dqc1hUt0gi-92" value="" style="endArrow=classic;html=1;rounded=0;strokeWidth=2;" parent="1" edge="1">
          <mxGeometry width="50" height="50" relative="1" as="geometry">
            <mxPoint x="300" y="509" as="sourcePoint" />
            <mxPoint x="480" y="509.33" as="targetPoint" />
          </mxGeometry>
        </mxCell>
        <mxCell id="UZHBKDGX54Dqc1hUt0gi-104" value="No" style="text;html=1;strokeColor=none;fillColor=none;align=center;verticalAlign=middle;whiteSpace=wrap;rounded=0;" parent="1" vertex="1">
          <mxGeometry x="350" y="480" width="60" height="30" as="geometry" />
        </mxCell>
        <mxCell id="UZHBKDGX54Dqc1hUt0gi-105" value="Yes" style="text;html=1;strokeColor=none;fillColor=none;align=center;verticalAlign=middle;whiteSpace=wrap;rounded=0;rotation=0;" parent="1" vertex="1">
          <mxGeometry x="350" y="730" width="60" height="30" as="geometry" />
        </mxCell>
        <mxCell id="UZHBKDGX54Dqc1hUt0gi-106" value="Stop" style="strokeWidth=2;html=1;shape=mxgraph.flowchart.start_1;whiteSpace=wrap;" parent="1" vertex="1">
          <mxGeometry x="800" y="520" width="100" height="60" as="geometry" />
        </mxCell>
        <mxCell id="UZHBKDGX54Dqc1hUt0gi-114" value="" style="endArrow=classic;html=1;rounded=0;strokeWidth=2;" parent="1" edge="1">
          <mxGeometry width="50" height="50" relative="1" as="geometry">
            <mxPoint x="690" y="530" as="sourcePoint" />
            <mxPoint x="600" y="530" as="targetPoint" />
          </mxGeometry>
        </mxCell>
        <mxCell id="UZHBKDGX54Dqc1hUt0gi-115" value="" style="endArrow=none;html=1;rounded=0;strokeWidth=2;" parent="1" edge="1">
          <mxGeometry width="50" height="50" relative="1" as="geometry">
            <mxPoint x="690" y="1120" as="sourcePoint" />
            <mxPoint x="690" y="530" as="targetPoint" />
          </mxGeometry>
        </mxCell>
        <mxCell id="UZHBKDGX54Dqc1hUt0gi-116" value="" style="endArrow=none;html=1;rounded=0;strokeWidth=2;" parent="1" edge="1">
          <mxGeometry width="50" height="50" relative="1" as="geometry">
            <mxPoint x="600" y="1119.33" as="sourcePoint" />
            <mxPoint x="690" y="1119" as="targetPoint" />
          </mxGeometry>
        </mxCell>
      </root>
    </mxGraphModel>
  </diagram>
</mxfile>
